<svg id="Layer_1" data-name="Layer 1" xmlns="http://www.w3.org/2000/svg" viewBox="0 0 100 80"><defs><style>.cls-1{fill:none;stroke:#000;stroke-miterlimit:10;stroke-width:1.01px;}.cls-2{fill:#336;}.cls-3{fill:#fff;}</style></defs><line class="cls-1" x1="7.56" y1="68.57" x2="92.56" y2="68.57"/><line class="cls-1" x1="50.56" y1="68.57" x2="50.56" y2="11.57"/><path d="M43.23,4.81v3.5c0,.26,0,.56,0,.75h-.48l0-.5h0a1.08,1.08,0,0,1-1,.57,1.32,1.32,0,0,1-1.24-1.48,1.38,1.38,0,0,1,1.3-1.55,1,1,0,0,1,.87.44h0V4.81Zm-.52,2.53a.89.89,0,0,0,0-.22.77.77,0,0,0-.76-.61c-.54,0-.87.48-.87,1.12s.29,1.07.86,1.07a.86.86,0,0,0,.8-.85Z"/><path d="M44.4,7.71a.94.94,0,0,0,1,1,1.92,1.92,0,0,0,.8-.15l.09.37a2.21,2.21,0,0,1-1,.18A1.35,1.35,0,0,1,43.9,7.66,1.4,1.4,0,0,1,45.26,6.1a1.22,1.22,0,0,1,1.2,1.36,1.47,1.47,0,0,1,0,.25ZM46,7.33a.75.75,0,0,0-.73-.86.88.88,0,0,0-.81.86Z"/><path d="M49.19,9a2,2,0,0,1-.84.16,1.38,1.38,0,0,1-1.44-1.48A1.48,1.48,0,0,1,48.47,6.1a1.82,1.82,0,0,1,.73.15l-.12.41a1.27,1.27,0,0,0-.61-.14,1,1,0,0,0-1,1.1,1,1,0,0,0,1,1.08,1.46,1.46,0,0,0,.65-.14Z"/><path d="M50.39,5.35a.3.3,0,0,1-.33.32.31.31,0,0,1-.32-.32A.32.32,0,0,1,50.07,5,.31.31,0,0,1,50.39,5.35Zm-.58,3.71V6.16h.52v2.9Z"/><path d="M51.14,8.52a1.28,1.28,0,0,0,.69.21c.39,0,.57-.19.57-.43s-.15-.39-.54-.53-.77-.48-.77-.82a.89.89,0,0,1,1-.85,1.51,1.51,0,0,1,.71.17l-.13.39a1.12,1.12,0,0,0-.59-.17c-.31,0-.49.18-.49.4s.18.34.55.49.77.44.77.87-.4.87-1.09.87A1.68,1.68,0,0,1,51,8.93Z"/><path d="M54.17,5.35a.3.3,0,0,1-.33.32.31.31,0,0,1-.32-.32A.32.32,0,0,1,53.85,5,.31.31,0,0,1,54.17,5.35Zm-.59,3.71V6.16h.53v2.9Z"/><path d="M57.62,7.59a1.42,1.42,0,0,1-1.45,1.54,1.38,1.38,0,0,1-1.39-1.49A1.41,1.41,0,0,1,56.22,6.1,1.37,1.37,0,0,1,57.62,7.59Zm-2.31,0c0,.63.37,1.11.88,1.11s.89-.47.89-1.12-.25-1.12-.87-1.12S55.31,7.07,55.31,7.62Z"/><path d="M58.28,7c0-.3,0-.55,0-.79h.47l0,.48h0a1.05,1.05,0,0,1,1-.54c.4,0,1,.23,1,1.23V9.06h-.52V7.39c0-.47-.18-.86-.68-.86a.75.75,0,0,0-.7.54.66.66,0,0,0,0,.25V9.06h-.53Z"/><polygon class="cls-2" points="67.21 55.58 67.21 46.08 51.06 46.08 51.06 30.07 67.21 30.07 67.21 20.57 84.7 38.08 67.21 55.58"/><path d="M7.41,72.5c0-.37,0-.67,0-.94h.47l0,.49h0a1.14,1.14,0,0,1,1-.56A1.31,1.31,0,0,1,10.16,73a1.37,1.37,0,0,1-1.32,1.56A1,1,0,0,1,8,74.07h0v1.58H7.41Zm.52.78a1.33,1.33,0,0,0,0,.21.8.8,0,0,0,.79.62c.56,0,.88-.46.88-1.12s-.31-1.08-.86-1.08a.93.93,0,0,0-.84.87Z"/><path d="M12.43,74.46l0-.37h0a1.06,1.06,0,0,1-.88.43.83.83,0,0,1-.89-.83c0-.7.62-1.08,1.74-1.08v-.06a.59.59,0,0,0-.66-.67,1.35,1.35,0,0,0-.75.22l-.12-.35a1.77,1.77,0,0,1,.95-.26c.89,0,1.1.61,1.1,1.19v1.08a4.9,4.9,0,0,0,.05.7ZM12.35,73c-.57,0-1.22.09-1.22.65a.46.46,0,0,0,.49.5.74.74,0,0,0,.71-.48,1.11,1.11,0,0,0,0-.17Z"/><path d="M13.65,73.92a1.37,1.37,0,0,0,.69.21c.39,0,.57-.19.57-.43s-.15-.39-.54-.54-.77-.47-.77-.82a.89.89,0,0,1,1-.85,1.4,1.4,0,0,1,.71.18l-.13.38a1.13,1.13,0,0,0-.59-.16c-.31,0-.49.18-.49.39s.18.35.55.49.77.45.77.88-.4.87-1.09.87a1.68,1.68,0,0,1-.82-.2Z"/><path d="M16.73,70.72v.84h.76V72h-.76v1.56c0,.36.1.57.4.57a1,1,0,0,0,.3,0l0,.4a1.41,1.41,0,0,1-.47.07.73.73,0,0,1-.57-.22,1.1,1.1,0,0,1-.21-.76V72h-.45v-.4h.45v-.7Z"/><path d="M45.37,72.34c0-.3,0-.54,0-.78h.46l0,.48h0a1.05,1.05,0,0,1,1-.55c.41,0,1,.24,1,1.24v1.73h-.53V72.79c0-.47-.17-.86-.67-.86a.74.74,0,0,0-.71.54.83.83,0,0,0,0,.24v1.75h-.53Z"/><path d="M51.33,73a1.43,1.43,0,0,1-1.45,1.55A1.39,1.39,0,0,1,48.49,73a1.42,1.42,0,0,1,1.44-1.54A1.38,1.38,0,0,1,51.33,73ZM49,73c0,.64.37,1.12.89,1.12s.88-.47.88-1.13c0-.49-.25-1.11-.87-1.11S49,72.46,49,73Z"/><path d="M52.16,71.56,52.55,73c.08.33.16.63.21.93h0c.07-.3.16-.61.26-.92l.47-1.48H54L54.41,73c.1.35.19.65.25.95h0c0-.3.13-.6.22-.95l.42-1.45h.52l-.94,2.9h-.48L54,73.07a9.46,9.46,0,0,1-.26-.95h0a8.37,8.37,0,0,1-.26,1L53,74.46H52.5l-.88-2.9Z"/><path d="M78.26,74.46V72h-.41v-.4h.41v-.14a1.37,1.37,0,0,1,.33-1,1,1,0,0,1,.71-.27,1.25,1.25,0,0,1,.45.08l-.07.41a.75.75,0,0,0-.34-.07c-.45,0-.56.4-.56.84v.16h.7V72h-.7v2.5Z"/><path d="M82.39,73.67c0,.3,0,.56,0,.79h-.47l0-.47h0a1.1,1.1,0,0,1-1,.54c-.46,0-1-.26-1-1.28V71.56h.53v1.6c0,.56.16.93.64.93a.77.77,0,0,0,.7-.48.81.81,0,0,0,0-.27V71.56h.53Z"/><path d="M83.9,70.72v.84h.75V72H83.9v1.56c0,.36.1.57.39.57a1.11,1.11,0,0,0,.31,0l0,.4a1.3,1.3,0,0,1-.46.07.73.73,0,0,1-.57-.22,1.1,1.1,0,0,1-.21-.76V72h-.45v-.4h.45v-.7Z"/><path d="M87.68,73.67c0,.3,0,.56,0,.79h-.47l0-.47h0a1.1,1.1,0,0,1-1,.54c-.45,0-1-.26-1-1.28V71.56h.53v1.6c0,.56.17.93.65.93a.76.76,0,0,0,.69-.48.81.81,0,0,0,.05-.27V71.56h.53Z"/><path d="M88.56,72.46c0-.34,0-.63,0-.9H89l0,.57h0a.86.86,0,0,1,.8-.64l.15,0V72a.52.52,0,0,0-.18,0,.74.74,0,0,0-.71.68,1.66,1.66,0,0,0,0,.24v1.55h-.52Z"/><path d="M90.75,73.1a.93.93,0,0,0,1,1,2,2,0,0,0,.8-.15l.09.38a2.43,2.43,0,0,1-1,.18,1.34,1.34,0,0,1-1.42-1.46,1.41,1.41,0,0,1,1.36-1.57,1.23,1.23,0,0,1,1.2,1.37,1.25,1.25,0,0,1,0,.24Zm1.55-.37c0-.34-.14-.86-.73-.86a.87.87,0,0,0-.81.86Z"/><path class="cls-3" d="M58,36.35l.71,2.71c.15.59.29,1.14.39,1.69h0c.13-.53.3-1.11.48-1.68l.87-2.72h.81L62.14,39c.19.63.35,1.2.47,1.73h0A15.61,15.61,0,0,1,63.05,39l.76-2.68h1l-1.72,5.33h-.88l-.82-2.54c-.18-.6-.34-1.12-.47-1.75h0a16.65,16.65,0,0,1-.48,1.76l-.86,2.53h-.88L57,36.35Z"/><path class="cls-3" d="M66.81,34.86a.6.6,0,0,1-1.2,0,.59.59,0,0,1,.61-.61A.58.58,0,0,1,66.81,34.86Zm-1.08,6.82V36.35h1v5.33Z"/><path class="cls-3" d="M68.31,33.87h1v7.81h-1Z"/><path class="cls-3" d="M70.9,33.87h1v7.81h-1Z"/></svg>